<svg width="493" height="339" xmlns="http://www.w3.org/2000/svg" xmlns:xlink="http://www.w3.org/1999/xlink" xml:space="preserve" overflow="hidden"><defs><clipPath id="clip0"><rect x="390" y="118" width="493" height="339"/></clipPath></defs><g clip-path="url(#clip0)" transform="translate(-390 -118)"><path d="M293.855 255.6C309.208 275.271 333.078 287.865 359.825 287.865 386.571 287.865 410.441 275.271 425.794 255.6 441.504 275.631 465.496 287.865 491.76 287.865 538.059 287.865 575.721 250.203 575.721 203.904 575.721 157.604 538.059 119.943 491.76 119.943 465.491 119.943 441.504 132.175 425.79 152.207 410.441 132.541 386.571 119.947 359.825 119.947 333.078 119.947 309.208 132.541 293.855 152.211 278.145 132.18 254.154 119.947 227.89 119.947 181.59 119.947 143.929 157.608 143.929 203.908 143.929 250.207 181.59 287.869 227.89 287.869 254.154 287.865 278.145 275.632 293.855 255.6ZM438.865 175.956C449.182 156.406 469.33 143.934 491.759 143.934 524.862 143.934 551.729 170.801 551.729 203.904 551.729 237.007 524.862 263.873 491.759 263.873 469.33 263.873 449.178 251.4 438.865 231.851 441.986 223.096 443.785 213.739 443.785 203.904 443.785 194.069 441.986 184.716 438.865 175.956ZM359.824 143.934C392.927 143.934 419.793 170.801 419.793 203.904 419.793 237.007 392.927 263.873 359.824 263.873 326.721 263.873 299.854 237.007 299.854 203.904 299.854 170.801 326.721 143.934 359.824 143.934ZM280.782 231.851C270.465 251.405 250.317 263.877 227.889 263.877 194.786 263.877 167.919 237.011 167.919 203.908 167.919 170.805 194.786 143.938 227.889 143.938 250.317 143.938 270.469 156.412 280.782 175.96 277.662 184.716 275.863 194.068 275.863 203.904 275.863 213.738 277.662 223.096 280.782 231.851Z" fill="#EDF2F4" transform="matrix(1.00048 0 0 1 279.991 0.228697)"/><path d="M119.946 395.809 119.946 443.788C119.946 450.386 125.343 455.783 131.941 455.783L587.719 455.783C594.317 455.783 599.714 450.386 599.714 443.788L599.714 395.809C599.714 336.318 551.258 287.861 491.766 287.861 467.659 287.861 444.627 295.777 425.676 310.532 407.448 296.379 384.658 287.861 359.831 287.861 335.004 287.861 312.215 296.379 293.982 310.532 275.03 295.777 252.003 287.861 227.896 287.861 168.404 287.861 119.948 336.318 119.948 395.809ZM491.76 311.849C538.059 311.849 575.721 349.51 575.721 395.809L575.721 431.792 467.773 431.792 467.773 395.809C467.773 369.903 458.537 346.032 443.303 327.442 457.339 317.366 474.251 311.849 491.76 311.849ZM359.827 311.849C406.126 311.849 443.788 349.51 443.788 395.809L443.788 431.792 275.862 431.792 275.862 395.809C275.862 349.51 313.523 311.849 359.823 311.849ZM227.894 311.849C245.407 311.849 262.318 317.366 276.35 327.442 261.118 346.032 251.881 369.903 251.881 395.809L251.881 431.792 143.933 431.792 143.933 395.809C143.933 349.51 181.594 311.849 227.894 311.849Z" fill="#EDF2F4" transform="matrix(1.00048 0 0 1 279.991 0.228697)"/><path d="M40.1752-2.39347C38.107-1.32118 35.9504-0.514038 33.7015 0.0321788 31.4526 0.578396 29.1113 0.851432 26.6817 0.851432 19.3968 0.851432 13.6261-1.18066 9.36475-5.25277 5.11191-9.32087 2.98749-14.8428 2.98749-21.814 2.98749-28.7938 5.11191-34.3196 9.36475-38.3918 13.6256-42.472 19.3965-44.512 26.6817-44.512 29.1113-44.512 31.4526-44.239 33.7015-43.6927 35.9504-43.1466 38.107-42.3314 40.1752-41.2511L40.1752-32.2072C38.0869-33.6288 36.0227-34.6729 33.9907-35.3396 31.9666-36.0023 29.8302-36.3356 27.5812-36.3356 23.5654-36.3356 20.4007-35.0425 18.0876-32.4643 15.7824-29.8941 14.6338-26.344 14.6338-21.8144 14.6338-17.3046 15.7824-13.7585 18.0876-11.18 20.4007-8.60982 23.5653-7.32473 27.5812-7.32473 29.8302-7.32473 31.9666-7.65403 33.9907-8.32068 36.0228-8.9833 38.0869-10.0275 40.1752-11.4531Z" fill="#EDF2F4" transform="matrix(1.00048 0 0 1 351.991 755.865)"/><path d="M16.4811-42.1028 16.4811-32.7859 27.2923-32.7859 27.2923-25.3002 16.4811-25.3002 16.4811-11.3893C16.4811-9.86727 16.7783-8.8392 17.3807-8.30511 17.9911-7.76697 19.1958-7.50193 20.995-7.50193L26.3763-7.50193 26.3763-0.000154211 17.3967-0.000154211C13.2523-0.000154211 10.3166-0.859565 8.59379-2.58638 6.86693-4.32126 6.00757-7.25293 6.00757-11.3892L6.00757-25.3001 0.78689-25.3001 0.78689-32.7858 6.00757-32.7858 6.00757-42.1027Z" fill="#EDF2F4" transform="matrix(1.00048 0 0 1 506.796 755.865)"/><path d="M27.3407-27.9986 27.3407-45.5561 37.8949-45.5561 37.8949 0 27.3407 0 27.3407-4.73882C25.903-2.81117 24.3127-1.39757 22.5698-0.498 20.8349 0.401567 18.827 0.85135 16.5459 0.85135 12.5058 0.85135 9.18874-0.755019 6.58637-3.96776 3.99212-7.1805 2.69901-11.3129 2.69901-16.3684 2.69901-21.4205 3.99212-25.5569 6.58637-28.7691 9.18864-31.9818 12.5058-33.5882 16.5459-33.5882 18.8028-33.5882 20.8067-33.1304 22.5537-32.2228 24.3087-31.3112 25.903-29.9016 27.3407-27.998ZM20.4332-6.76269C22.6821-6.76269 24.393-7.58194 25.5736-9.22041 26.7502-10.859 27.3407-13.2404 27.3407-16.3687 27.3407-19.4932 26.7503-21.8786 25.5736-23.517 24.393-25.1556 22.6821-25.9748 20.4332-25.9748 18.2044-25.9748 16.5017-25.1555 15.3249-23.517 14.1443-21.8785 13.5579-19.493 13.5579-16.3687 13.5579-13.2403 14.1442-10.8589 15.3249-9.22041 16.5016-7.58186 18.2044-6.76269 20.4332-6.76269Z" fill="#EDF2F4" transform="matrix(1.00048 0 0 1 576.172 755.865)"/><path d="M22.4892-6.76279C24.7261-6.76279 26.4328-7.58204 27.6135-9.22051 28.8022-10.8591 29.3966-13.2405 29.3966-16.3688 29.3966-19.4933 28.8023-21.8787 27.6135-23.5171 26.4329-25.1557 24.7261-25.9749 22.4892-25.9749 20.2403-25.9749 18.5134-25.1476 17.3167-23.5011 16.1159-21.8505 15.5176-19.4731 15.5176-16.3688 15.5176-13.2605 16.1159-10.8831 17.3167-9.23655 18.5135-7.58597 20.2404-6.76279 22.4892-6.76279ZM15.5176-27.9987C16.9633-29.9023 18.5616-31.3119 20.3207-32.2235 22.0756-33.1311 24.0956-33.5889 26.3766-33.5889 30.4247-33.5889 33.7419-31.9825 36.3361-28.7698 38.9264-25.5571 40.2235-21.4207 40.2235-16.3691 40.2235-11.3131 38.9264-7.1807 36.3361-3.96848 33.7419-0.755739 30.4247 0.850631 26.3766 0.850631 24.0955 0.850631 22.0756 0.392818 20.3207-0.514758 18.5617-1.42235 16.9634-2.83194 15.5176-4.73954L15.5176-0.000719654 5.04354-0.000719654 5.04354-45.5568 15.5176-45.5568Z" fill="#EDF2F4" transform="matrix(1.00048 0 0 1 640.008 755.865)"/><path d="M22.4892-6.76279C24.7261-6.76279 26.4328-7.58204 27.6135-9.22051 28.8022-10.8591 29.3966-13.2405 29.3966-16.3688 29.3966-19.4933 28.8023-21.8787 27.6135-23.5171 26.4329-25.1557 24.7261-25.9749 22.4892-25.9749 20.2403-25.9749 18.5134-25.1476 17.3167-23.5011 16.1159-21.8505 15.5176-19.4731 15.5176-16.3688 15.5176-13.2605 16.1159-10.8831 17.3167-9.23655 18.5135-7.58597 20.2404-6.76279 22.4892-6.76279ZM15.5176-27.9987C16.9633-29.9023 18.5616-31.3119 20.3207-32.2235 22.0756-33.1311 24.0956-33.5889 26.3766-33.5889 30.4247-33.5889 33.7419-31.9825 36.3361-28.7698 38.9264-25.5571 40.2235-21.4207 40.2235-16.3691 40.2235-11.3131 38.9264-7.1807 36.3361-3.96848 33.7419-0.755739 30.4247 0.850631 26.3766 0.850631 24.0955 0.850631 22.0756 0.392818 20.3207-0.514758 18.5617-1.42235 16.9634-2.83194 15.5176-4.73954L15.5176-0.000719654 5.04354-0.000719654 5.04354-45.5568 15.5176-45.5568Z" fill="#EDF2F4" transform="matrix(1.00048 0 0 1 742.957 755.865)"/><path d="M5.04395-32.7864 15.518-32.7864 15.518 0 5.04395 0ZM5.04395-45.5572 15.518-45.5572 15.518-37.0113 5.04395-37.0113Z" fill="#EDF2F4" transform="matrix(1.00048 0 0 1 864.338 755.865)"/></g></svg>